<?xml version="1.0" standalone="no"?>
<!DOCTYPE svg PUBLIC "-//W3C//DTD SVG 20010904//EN"
 "http://www.w3.org/TR/2001/REC-SVG-20010904/DTD/svg10.dtd">
<svg version="1.0" xmlns="http://www.w3.org/2000/svg"
 width="920.000000pt" height="512.000000pt" viewBox="0 0 920.000000 512.000000"
 preserveAspectRatio="xMidYMid meet">
<metadata>
Created by potrace 1.16, written by Peter Selinger 2001-2019
</metadata>
<g transform="translate(0.000000,512.000000) scale(0.100000,-0.100000)"
fill="#000000" stroke="none">
<path d="M2255 4674 c-91 -23 -150 -67 -188 -138 -29 -57 -29 -165 0 -221 26
-51 66 -91 118 -119 37 -20 56 -21 300 -24 l261 -3 37 -157 c56 -238 263
-1124 397 -1697 66 -280 127 -535 136 -565 59 -198 214 -334 404 -357 l48 -5
-57 -57 c-203 -204 -202 -533 3 -734 164 -161 389 -198 592 -98 171 85 277
243 291 436 10 141 -40 274 -146 388 l-60 63 480 1 c263 0 479 -1 479 -2 0 -2
-26 -30 -58 -63 -96 -100 -142 -216 -142 -362 -1 -145 48 -259 155 -365 202
-200 507 -202 718 -5 212 198 219 525 16 734 -33 33 -59 62 -59 63 0 2 64 3
143 2 114 -1 150 2 185 16 52 21 128 103 142 153 35 129 -19 253 -135 308
l-50 24 -1232 0 -1231 0 -31 130 c-17 71 -31 134 -31 140 0 7 403 10 1268 10
812 0 1290 4 1332 10 132 21 255 110 308 224 38 79 484 1289 499 1351 42 174
-51 366 -216 448 l-66 32 -1328 3 c-1469 3 -1371 7 -1418 -60 -59 -82 -38
-189 46 -244 28 -18 67 -19 1321 -24 1253 -5 1293 -6 1313 -24 12 -11 21 -29
21 -41 0 -16 -288 -804 -456 -1246 -17 -47 -32 -69 -50 -78 -29 -13 -2649 -17
-2657 -3 -3 4 -93 385 -201 847 -227 968 -231 984 -264 1049 -30 61 -122 159
-180 193 -102 60 -142 66 -452 69 -157 1 -294 0 -305 -2z"/>
</g>
</svg>
